<mxfile host="app.diagrams.net" modified="2021-02-01T16:05:58.157Z" agent="5.0 (Windows NT 10.0; Win64; x64) AppleWebKit/537.36 (KHTML, like Gecko) Chrome/87.0.4280.141 Safari/537.36" etag="hqEqM72bH1BXD09FQw24" version="14.2.9" type="github">
  <diagram name="Page-1" id="fbcf5db9-b524-4cd4-e4f3-379dc89c3999">
    <mxGraphModel dx="3149" dy="2691" grid="1" gridSize="10" guides="1" tooltips="1" connect="1" arrows="1" fold="1" page="1" pageScale="1" pageWidth="850" pageHeight="1100" background="#ffffff" math="0" shadow="0">
      <root>
        <mxCell id="0" />
        <mxCell id="1" parent="0" />
        <mxCell id="RzOaA_u3JlGsLnGhBPAF-13" value="" style="group" vertex="1" connectable="0" parent="1">
          <mxGeometry x="8.40728260869571" y="-160" width="1385" height="1460" as="geometry" />
        </mxCell>
        <mxCell id="RzOaA_u3JlGsLnGhBPAF-12" value="" style="group" vertex="1" connectable="0" parent="RzOaA_u3JlGsLnGhBPAF-13">
          <mxGeometry width="1385" height="1460" as="geometry" />
        </mxCell>
        <mxCell id="im_V31sKaovh9-GjimSp-64" value="" style="rounded=0;whiteSpace=wrap;html=1;fontFamily=Georgia;fontSize=50;strokeColor=none;fillColor=#99CCFF;" parent="RzOaA_u3JlGsLnGhBPAF-12" vertex="1">
          <mxGeometry width="1385" height="1460" as="geometry" />
        </mxCell>
        <mxCell id="im_V31sKaovh9-GjimSp-63" value="" style="group" parent="RzOaA_u3JlGsLnGhBPAF-12" vertex="1" connectable="0">
          <mxGeometry x="367.5" y="100" width="650" height="130" as="geometry" />
        </mxCell>
        <mxCell id="im_V31sKaovh9-GjimSp-39" value="" style="rounded=0;whiteSpace=wrap;html=1;fontSize=18;fontColor=#FFFFFF;strokeColor=none;fillColor=#6666FF;" parent="im_V31sKaovh9-GjimSp-63" vertex="1">
          <mxGeometry width="650" height="130" as="geometry" />
        </mxCell>
        <mxCell id="im_V31sKaovh9-GjimSp-2" value="Tarefas Comuns de Suporte" style="text;html=1;strokeColor=none;fillColor=none;align=center;verticalAlign=middle;whiteSpace=wrap;rounded=0;fontStyle=1;fontSize=50;fontFamily=Georgia;fontColor=#FFFFFF;" parent="im_V31sKaovh9-GjimSp-63" vertex="1">
          <mxGeometry x="27.5" width="595" height="130" as="geometry" />
        </mxCell>
        <mxCell id="RzOaA_u3JlGsLnGhBPAF-11" value="" style="group" vertex="1" connectable="0" parent="RzOaA_u3JlGsLnGhBPAF-13">
          <mxGeometry x="73.4072826086956" y="290" width="1238.1854347826088" height="1100" as="geometry" />
        </mxCell>
        <mxCell id="im_V31sKaovh9-GjimSp-62" value="" style="group" parent="RzOaA_u3JlGsLnGhBPAF-11" vertex="1" connectable="0">
          <mxGeometry x="758.1854347826087" width="480" height="840" as="geometry" />
        </mxCell>
        <mxCell id="im_V31sKaovh9-GjimSp-24" value="" style="rounded=0;whiteSpace=wrap;html=1;fontSize=50;strokeColor=none;fillColor=#FF3399;" parent="im_V31sKaovh9-GjimSp-62" vertex="1">
          <mxGeometry x="50" y="40" width="400" height="710" as="geometry" />
        </mxCell>
        <mxCell id="im_V31sKaovh9-GjimSp-26" value="Termos Comuns" style="text;html=1;strokeColor=none;fillColor=none;align=center;verticalAlign=middle;whiteSpace=wrap;rounded=0;fontSize=50;fontStyle=1;fontColor=#FF0080;" parent="im_V31sKaovh9-GjimSp-62" vertex="1">
          <mxGeometry width="480" height="20" as="geometry" />
        </mxCell>
        <mxCell id="im_V31sKaovh9-GjimSp-29" value="" style="group;fontSize=10;" parent="im_V31sKaovh9-GjimSp-62" vertex="1" connectable="0">
          <mxGeometry x="40" y="50" width="400" height="180" as="geometry" />
        </mxCell>
        <mxCell id="im_V31sKaovh9-GjimSp-28" value="" style="rounded=0;whiteSpace=wrap;html=1;fontSize=18;fontColor=#FFFFFF;fillColor=#0066CC;" parent="im_V31sKaovh9-GjimSp-29" vertex="1">
          <mxGeometry width="400" height="120" as="geometry" />
        </mxCell>
        <mxCell id="im_V31sKaovh9-GjimSp-27" value="&lt;h1 style=&quot;font-size: 17px;&quot;&gt;&lt;span style=&quot;font-size: 17px;&quot;&gt;Integração&lt;/span&gt;&lt;br style=&quot;font-size: 17px;&quot;&gt;&lt;/h1&gt;&lt;p style=&quot;font-size: 17px; line-height: 120%;&quot;&gt;É a comunicação entre as aplicações da ForshCommerce e o Sistema de Gestão (ERP) usado pelo Cliente&lt;/p&gt;" style="text;html=1;strokeColor=none;fillColor=none;spacing=5;spacingTop=-20;whiteSpace=wrap;overflow=hidden;rounded=0;fontSize=17;fontColor=#FFFFFF;" parent="im_V31sKaovh9-GjimSp-29" vertex="1">
          <mxGeometry x="12.120000000000005" y="11.25" width="375.76" height="97.5" as="geometry" />
        </mxCell>
        <mxCell id="im_V31sKaovh9-GjimSp-30" value="" style="group" parent="im_V31sKaovh9-GjimSp-62" vertex="1" connectable="0">
          <mxGeometry x="40" y="190" width="400" height="180" as="geometry" />
        </mxCell>
        <mxCell id="im_V31sKaovh9-GjimSp-31" value="" style="rounded=0;whiteSpace=wrap;html=1;fontSize=18;fontColor=#FFFFFF;fillColor=#0066CC;" parent="im_V31sKaovh9-GjimSp-30" vertex="1">
          <mxGeometry width="400" height="100" as="geometry" />
        </mxCell>
        <mxCell id="im_V31sKaovh9-GjimSp-32" value="&lt;h1 style=&quot;font-size: 17px;&quot;&gt;&lt;span style=&quot;font-size: 17px;&quot;&gt;Cliente&lt;/span&gt;&lt;br style=&quot;font-size: 17px;&quot;&gt;&lt;/h1&gt;&lt;p style=&quot;font-size: 17px; line-height: 120%;&quot;&gt;Termo utilizado para referir à empresa a qual a ForshCommerce atende&lt;/p&gt;" style="text;html=1;strokeColor=none;fillColor=none;spacing=5;spacingTop=-20;whiteSpace=wrap;overflow=hidden;rounded=0;fontSize=17;fontColor=#FFFFFF;" parent="im_V31sKaovh9-GjimSp-30" vertex="1">
          <mxGeometry x="10" y="2.5" width="370" height="87.5" as="geometry" />
        </mxCell>
        <mxCell id="im_V31sKaovh9-GjimSp-33" value="" style="group" parent="im_V31sKaovh9-GjimSp-62" vertex="1" connectable="0">
          <mxGeometry x="40" y="315" width="400" height="220" as="geometry" />
        </mxCell>
        <mxCell id="im_V31sKaovh9-GjimSp-34" value="" style="rounded=0;whiteSpace=wrap;html=1;fontSize=18;fontColor=#FFFFFF;fillColor=#0066CC;" parent="im_V31sKaovh9-GjimSp-33" vertex="1">
          <mxGeometry y="-8.470000000000027" width="400" height="150" as="geometry" />
        </mxCell>
        <mxCell id="im_V31sKaovh9-GjimSp-35" value="&lt;h1 style=&quot;font-size: 17px;&quot;&gt;&lt;span style=&quot;font-size: 17px;&quot;&gt;ERP&lt;/span&gt;&lt;br style=&quot;font-size: 17px;&quot;&gt;&lt;/h1&gt;&lt;p style=&quot;font-size: 17px; line-height: 120%;&quot;&gt;Termo em inglês para&amp;nbsp;Sistema integrado de gestão empresarial, se refere ao&amp;nbsp; software de Gestão Empresarial a qual a empresa usa. Ex: Santri, Siac ...&amp;nbsp;&amp;nbsp;&lt;/p&gt;" style="text;html=1;strokeColor=none;fillColor=none;spacing=5;spacingTop=-20;whiteSpace=wrap;overflow=hidden;rounded=0;fontSize=17;fontColor=#FFFFFF;" parent="im_V31sKaovh9-GjimSp-33" vertex="1">
          <mxGeometry x="12.120000000000005" y="3.059999999999974" width="375.76" height="126.94" as="geometry" />
        </mxCell>
        <mxCell id="im_V31sKaovh9-GjimSp-36" value="" style="group" parent="im_V31sKaovh9-GjimSp-62" vertex="1" connectable="0">
          <mxGeometry x="40" y="478" width="400" height="220" as="geometry" />
        </mxCell>
        <mxCell id="im_V31sKaovh9-GjimSp-37" value="" style="rounded=0;whiteSpace=wrap;html=1;fontSize=18;fontColor=#FFFFFF;fillColor=#0066CC;" parent="im_V31sKaovh9-GjimSp-36" vertex="1">
          <mxGeometry y="-4.529999999999973" width="400" height="130" as="geometry" />
        </mxCell>
        <mxCell id="im_V31sKaovh9-GjimSp-38" value="&lt;h1 style=&quot;font-size: 17px;&quot;&gt;&lt;span style=&quot;font-size: 17px;&quot;&gt;Integrador&lt;/span&gt;&lt;br style=&quot;font-size: 17px;&quot;&gt;&lt;/h1&gt;&lt;p style=&quot;font-size: 17px; line-height: 120%;&quot;&gt;Aplicação que é executada In-loco (no computador do Cliente) que envia os dados do ERP para a aplicação WEB.&amp;nbsp;&amp;nbsp;&lt;/p&gt;" style="text;html=1;strokeColor=none;fillColor=none;spacing=5;spacingTop=-20;whiteSpace=wrap;overflow=hidden;rounded=0;fontSize=17;fontColor=#FFFFFF;" parent="im_V31sKaovh9-GjimSp-36" vertex="1">
          <mxGeometry x="12.120000000000005" y="7.000000000000028" width="375.76" height="106.94" as="geometry" />
        </mxCell>
        <mxCell id="im_V31sKaovh9-GjimSp-40" value="" style="group" parent="im_V31sKaovh9-GjimSp-62" vertex="1" connectable="0">
          <mxGeometry x="40" y="620" width="400" height="220" as="geometry" />
        </mxCell>
        <mxCell id="im_V31sKaovh9-GjimSp-41" value="" style="rounded=0;whiteSpace=wrap;html=1;fontSize=18;fontColor=#FFFFFF;fillColor=#0066CC;" parent="im_V31sKaovh9-GjimSp-40" vertex="1">
          <mxGeometry y="-0.20500000000002672" width="400" height="147.47" as="geometry" />
        </mxCell>
        <mxCell id="im_V31sKaovh9-GjimSp-42" value="&lt;h1 style=&quot;font-size: 17px;&quot;&gt;&lt;span style=&quot;font-size: 17px;&quot;&gt;ADM&lt;/span&gt;&lt;br style=&quot;font-size: 17px;&quot;&gt;&lt;/h1&gt;&lt;p style=&quot;font-size: 17px; line-height: 120%;&quot;&gt;Termo utilizado para referir a um sistema de gestão, pode ser o ERP do cliente ou a aplicação de Gestão da Forsh, para evitar ambiguidade especificar.&amp;nbsp; Ex: ADM do Cliente&lt;/p&gt;" style="text;html=1;strokeColor=none;fillColor=none;spacing=5;spacingTop=-20;whiteSpace=wrap;overflow=hidden;rounded=0;fontSize=17;fontColor=#FFFFFF;" parent="im_V31sKaovh9-GjimSp-40" vertex="1">
          <mxGeometry x="12.120000000000005" y="6.059999999999974" width="375.76" height="134.94" as="geometry" />
        </mxCell>
        <mxCell id="RzOaA_u3JlGsLnGhBPAF-10" value="" style="group" vertex="1" connectable="0" parent="RzOaA_u3JlGsLnGhBPAF-11">
          <mxGeometry width="645.46" height="1100" as="geometry" />
        </mxCell>
        <mxCell id="im_V31sKaovh9-GjimSp-67" value="Ordem de Prioridade" style="text;html=1;strokeColor=none;fillColor=none;align=center;verticalAlign=middle;whiteSpace=wrap;rounded=0;fontSize=60;fontStyle=1;fontColor=#FF3399;" parent="RzOaA_u3JlGsLnGhBPAF-10" vertex="1">
          <mxGeometry width="645.46" height="20" as="geometry" />
        </mxCell>
        <mxCell id="RzOaA_u3JlGsLnGhBPAF-8" value="" style="group" vertex="1" connectable="0" parent="RzOaA_u3JlGsLnGhBPAF-10">
          <mxGeometry x="17.27456521739134" y="90" width="610.9108695652174" height="1010" as="geometry" />
        </mxCell>
        <mxCell id="RzOaA_u3JlGsLnGhBPAF-4" value="" style="rounded=1;whiteSpace=wrap;html=1;strokeColor=none;strokeWidth=1;fontSize=13;fontColor=#FFFFFF;align=center;gradientColor=none;gradientDirection=east;verticalAlign=top;shadow=1;fillColor=#FF9999;" vertex="1" parent="RzOaA_u3JlGsLnGhBPAF-8">
          <mxGeometry x="334.9127699898096" width="270" height="130" as="geometry" />
        </mxCell>
        <mxCell id="RzOaA_u3JlGsLnGhBPAF-5" value="" style="group;fontColor=#CC0000;" vertex="1" connectable="0" parent="RzOaA_u3JlGsLnGhBPAF-8">
          <mxGeometry x="356.37513586956504" y="22.786562500000002" width="227.08" height="110" as="geometry" />
        </mxCell>
        <mxCell id="RzOaA_u3JlGsLnGhBPAF-6" value="!" style="text;html=1;strokeColor=none;fillColor=none;align=center;verticalAlign=middle;whiteSpace=wrap;fontSize=77;fontStyle=1;fontColor=#CC0000;" vertex="1" parent="RzOaA_u3JlGsLnGhBPAF-5">
          <mxGeometry y="29.835580357142863" width="36.68478260869565" height="24.761904761904763" as="geometry" />
        </mxCell>
        <mxCell id="RzOaA_u3JlGsLnGhBPAF-7" value="&lt;h1&gt;&lt;font color=&quot;#ff0000&quot;&gt;Atendimento&lt;/font&gt;&lt;/h1&gt;&lt;p&gt;&lt;font style=&quot;font-size: 12px&quot; color=&quot;#ff0000&quot;&gt;Atendimento é uma das tarefas mais corriqueiras do suporte, dentre elas há algumas tarefas mais comuns.&amp;nbsp;&lt;/font&gt;&lt;/p&gt;&lt;p&gt;&lt;font style=&quot;font-size: 12px&quot; color=&quot;#ff0000&quot;&gt;&lt;b&gt;Como Realizar:&lt;/b&gt;&amp;nbsp;&lt;/font&gt;&lt;/p&gt;" style="text;html=1;spacing=5;spacingTop=-20;whiteSpace=wrap;overflow=hidden;strokeColor=none;strokeWidth=4;fillColor=none;gradientColor=#007FFF;fontSize=9;align=center;fontColor=#FF0080;" vertex="1" parent="RzOaA_u3JlGsLnGhBPAF-8">
          <mxGeometry x="381.6808695652172" y="10" width="201.77" height="120" as="geometry" />
        </mxCell>
        <mxCell id="2a0f93b5c73ef8e7-1" value="" style="line;strokeWidth=10;direction=south;html=1;fillColor=none;fontSize=13;fontColor=#000000;align=center;strokeColor=#AE4132;" parent="RzOaA_u3JlGsLnGhBPAF-8" vertex="1">
          <mxGeometry x="260.91" y="10" width="10" height="990" as="geometry" />
        </mxCell>
        <mxCell id="im_V31sKaovh9-GjimSp-3" value="" style="group" parent="RzOaA_u3JlGsLnGhBPAF-8" vertex="1" connectable="0">
          <mxGeometry x="220.91086956521735" y="150" width="360" height="136" as="geometry" />
        </mxCell>
        <mxCell id="2a0f93b5c73ef8e7-4" value="" style="rounded=1;whiteSpace=wrap;html=1;strokeColor=none;strokeWidth=1;fillColor=#10739E;fontSize=13;fontColor=#FFFFFF;align=center;gradientColor=none;gradientDirection=east;verticalAlign=top;shadow=1;" parent="im_V31sKaovh9-GjimSp-3" vertex="1">
          <mxGeometry width="359.99999999999994" height="136" as="geometry" />
        </mxCell>
        <mxCell id="2a0f93b5c73ef8e7-5" value="2" style="text;html=1;strokeColor=none;fillColor=none;align=center;verticalAlign=middle;whiteSpace=wrap;fontSize=30;fontColor=#FFFFFF;" parent="im_V31sKaovh9-GjimSp-3" vertex="1">
          <mxGeometry x="16.36363636363636" y="52.800000000000004" width="65.45454545454544" height="32" as="geometry" />
        </mxCell>
        <mxCell id="2a0f93b5c73ef8e7-19" value="&lt;h1&gt;Backups Diários&lt;/h1&gt;&lt;p style=&quot;font-size: 12px&quot;&gt;Backups dos Bancos de dados de todos os Apps, tarefa de extrema importância e deve ser feita ants de qualquer modificação nos bancos.&lt;/p&gt;&lt;p style=&quot;font-size: 12px&quot;&gt;&lt;b&gt;Como Realizar:&amp;nbsp;&lt;/b&gt;&amp;nbsp;&lt;/p&gt;" style="text;html=1;spacing=5;spacingTop=-20;whiteSpace=wrap;overflow=hidden;strokeColor=none;strokeWidth=4;fillColor=none;gradientColor=#007FFF;fontSize=9;fontColor=#FFFFFF;align=center;" parent="im_V31sKaovh9-GjimSp-3" vertex="1">
          <mxGeometry x="89.18181818181819" y="11.4" width="261.81818181818176" height="123.2" as="geometry" />
        </mxCell>
        <mxCell id="im_V31sKaovh9-GjimSp-7" value="" style="group" parent="RzOaA_u3JlGsLnGhBPAF-8" vertex="1" connectable="0">
          <mxGeometry width="300.0008695652174" height="130" as="geometry" />
        </mxCell>
        <mxCell id="im_V31sKaovh9-GjimSp-8" value="" style="group" parent="im_V31sKaovh9-GjimSp-7" vertex="1" connectable="0">
          <mxGeometry x="-19.999130434782614" width="320" height="130" as="geometry" />
        </mxCell>
        <mxCell id="2a0f93b5c73ef8e7-2" value="" style="rounded=1;whiteSpace=wrap;html=1;strokeColor=none;strokeWidth=1;fontSize=13;fontColor=#FFFFFF;align=center;gradientColor=none;gradientDirection=east;verticalAlign=top;shadow=1;fillColor=#F2931E;" parent="im_V31sKaovh9-GjimSp-8" vertex="1">
          <mxGeometry width="320" height="130" as="geometry" />
        </mxCell>
        <mxCell id="2a0f93b5c73ef8e7-3" value="1" style="text;html=1;strokeColor=none;fillColor=none;align=center;verticalAlign=middle;whiteSpace=wrap;fontSize=30;fontColor=#FFFFFF;" parent="im_V31sKaovh9-GjimSp-8" vertex="1">
          <mxGeometry x="19.999130434782614" y="40.85714285714286" width="43.47826086956522" height="24.761904761904763" as="geometry" />
        </mxCell>
        <mxCell id="2a0f93b5c73ef8e7-18" value="&lt;h1&gt;Captura de Pedidos Liven&lt;/h1&gt;&lt;p&gt;&lt;font style=&quot;font-size: 12px&quot;&gt;A primeira tarefa do dia, a Liven precisa que seus pedidos tenham o pagamento capturado para que possam separar seus pedidos.&lt;/font&gt;&lt;/p&gt;&lt;p&gt;&lt;font style=&quot;font-size: 12px&quot;&gt;&lt;b&gt;Como Realizar:&lt;/b&gt;&amp;nbsp;&lt;/font&gt;&lt;/p&gt;" style="text;html=1;spacing=5;spacingTop=-20;whiteSpace=wrap;overflow=hidden;strokeColor=none;strokeWidth=4;fillColor=none;gradientColor=#007FFF;fontSize=9;fontColor=#FFFFFF;align=center;" parent="im_V31sKaovh9-GjimSp-8" vertex="1">
          <mxGeometry x="63" y="4.95" width="239.13" height="125.05" as="geometry" />
        </mxCell>
        <mxCell id="im_V31sKaovh9-GjimSp-9" value="3" style="group" parent="RzOaA_u3JlGsLnGhBPAF-8" vertex="1" connectable="0">
          <mxGeometry x="0.0008695652173855706" y="310" width="300" height="160" as="geometry" />
        </mxCell>
        <mxCell id="im_V31sKaovh9-GjimSp-10" value="3" style="group" parent="im_V31sKaovh9-GjimSp-9" vertex="1" connectable="0">
          <mxGeometry x="-19.999072466456624" width="319.9990724664566" height="160" as="geometry" />
        </mxCell>
        <mxCell id="im_V31sKaovh9-GjimSp-11" value="" style="rounded=1;whiteSpace=wrap;html=1;strokeColor=none;strokeWidth=1;fillColor=#F2931E;fontSize=13;fontColor=#FFFFFF;align=center;gradientColor=none;gradientDirection=east;verticalAlign=top;shadow=1;" parent="im_V31sKaovh9-GjimSp-10" vertex="1">
          <mxGeometry width="319.9990724664566" height="160" as="geometry" />
        </mxCell>
        <mxCell id="im_V31sKaovh9-GjimSp-12" value="3" style="text;html=1;strokeColor=none;fillColor=none;align=center;verticalAlign=middle;whiteSpace=wrap;fontSize=30;fontColor=#FFFFFF;" parent="im_V31sKaovh9-GjimSp-10" vertex="1">
          <mxGeometry x="19.999072466456624" y="50.28571428571429" width="43.47813484598595" height="30.476190476190478" as="geometry" />
        </mxCell>
        <mxCell id="im_V31sKaovh9-GjimSp-13" value="&lt;h1&gt;Integração de Pedidos Amazon Liven&lt;/h1&gt;&lt;p&gt;&lt;font style=&quot;font-size: 12px&quot;&gt;O OpenCart é Integrado com a API da Amazon via Plugin, todos os pedidos precisam ser inspecionados e a integração acompanhada e se necessário, realizada manualmente.&amp;nbsp;&lt;/font&gt;&lt;/p&gt;&lt;p&gt;&lt;font style=&quot;font-size: 12px&quot;&gt;&lt;b&gt;Como Realizar:&lt;/b&gt;&amp;nbsp;&lt;/font&gt;&lt;/p&gt;" style="text;html=1;spacing=5;spacingTop=-20;whiteSpace=wrap;overflow=hidden;strokeColor=none;strokeWidth=4;fillColor=none;gradientColor=#007FFF;fontSize=9;fontColor=#FFFFFF;align=center;" parent="im_V31sKaovh9-GjimSp-10" vertex="1">
          <mxGeometry x="64.99979710203738" y="6.092307692307692" width="239.12930687157427" height="153.90769230769232" as="geometry" />
        </mxCell>
        <mxCell id="im_V31sKaovh9-GjimSp-14" value="" style="group" parent="RzOaA_u3JlGsLnGhBPAF-8" vertex="1" connectable="0">
          <mxGeometry x="210.91086956521735" y="492" width="390" height="150" as="geometry" />
        </mxCell>
        <mxCell id="im_V31sKaovh9-GjimSp-15" value="" style="rounded=1;whiteSpace=wrap;html=1;strokeColor=none;strokeWidth=1;fillColor=#10739E;fontSize=13;fontColor=#FFFFFF;align=center;gradientColor=none;gradientDirection=east;verticalAlign=top;shadow=1;" parent="im_V31sKaovh9-GjimSp-14" vertex="1">
          <mxGeometry width="390.0000000000001" height="150" as="geometry" />
        </mxCell>
        <mxCell id="im_V31sKaovh9-GjimSp-16" value="4" style="text;html=1;strokeColor=none;fillColor=none;align=center;verticalAlign=middle;whiteSpace=wrap;fontSize=30;fontColor=#FFFFFF;" parent="im_V31sKaovh9-GjimSp-14" vertex="1">
          <mxGeometry x="17.72727272727273" y="58.235294117647065" width="70.90909090909092" height="35.294117647058826" as="geometry" />
        </mxCell>
        <mxCell id="im_V31sKaovh9-GjimSp-17" value="&lt;h1&gt;Relatório de Pedidos Amazon Liven&lt;/h1&gt;&lt;p style=&quot;font-size: 12px&quot;&gt;&lt;span&gt;Após a integração dos pedidos deve-se enviar um relatório para os atendentes responsáveis segundo template.&amp;nbsp;&lt;/span&gt;&lt;/p&gt;&lt;p style=&quot;font-size: 12px&quot;&gt;&lt;b&gt;Como Realizar:&amp;nbsp;&lt;/b&gt;&lt;span&gt;&amp;nbsp;&lt;/span&gt;&lt;br&gt;&lt;/p&gt;" style="text;html=1;spacing=5;spacingTop=-20;whiteSpace=wrap;overflow=hidden;strokeColor=none;strokeWidth=4;fillColor=none;gradientColor=#007FFF;fontSize=9;fontColor=#FFFFFF;align=center;" parent="im_V31sKaovh9-GjimSp-14" vertex="1">
          <mxGeometry x="90.96889952153111" y="11.344537815126051" width="283.6363636363637" height="135.8823529411765" as="geometry" />
        </mxCell>
        <mxCell id="im_V31sKaovh9-GjimSp-18" value="3" style="group" parent="RzOaA_u3JlGsLnGhBPAF-8" vertex="1" connectable="0">
          <mxGeometry x="0.0008695652173855706" y="662" width="300" height="160" as="geometry" />
        </mxCell>
        <mxCell id="im_V31sKaovh9-GjimSp-19" value="3" style="group" parent="im_V31sKaovh9-GjimSp-18" vertex="1" connectable="0">
          <mxGeometry x="-19.999072466456624" width="319.9990724664566" height="160" as="geometry" />
        </mxCell>
        <mxCell id="im_V31sKaovh9-GjimSp-20" value="" style="rounded=1;whiteSpace=wrap;html=1;strokeColor=none;strokeWidth=1;fillColor=#F2931E;fontSize=13;fontColor=#FFFFFF;align=center;gradientColor=none;gradientDirection=east;verticalAlign=top;shadow=1;" parent="im_V31sKaovh9-GjimSp-19" vertex="1">
          <mxGeometry width="319.9990724664566" height="160" as="geometry" />
        </mxCell>
        <mxCell id="im_V31sKaovh9-GjimSp-21" value="5" style="text;html=1;strokeColor=none;fillColor=none;align=center;verticalAlign=middle;whiteSpace=wrap;fontSize=30;fontColor=#FFFFFF;" parent="im_V31sKaovh9-GjimSp-19" vertex="1">
          <mxGeometry x="19.999072466456624" y="50.28571428571429" width="43.47813484598595" height="30.476190476190478" as="geometry" />
        </mxCell>
        <mxCell id="im_V31sKaovh9-GjimSp-22" value="&lt;h1&gt;Integração de Pedidos via Boleto - Liven&lt;/h1&gt;&lt;p&gt;&lt;font style=&quot;font-size: 12px&quot;&gt;Pedidos Pagos via boletos precisam ser inspecionados por erros de integração e integrados manualmente se necessário.&amp;nbsp;&lt;/font&gt;&lt;/p&gt;&lt;p&gt;&lt;font style=&quot;font-size: 12px&quot;&gt;&lt;b&gt;Como Realizar:&lt;/b&gt;&amp;nbsp;&lt;/font&gt;&lt;/p&gt;" style="text;html=1;spacing=5;spacingTop=-20;whiteSpace=wrap;overflow=hidden;strokeColor=none;strokeWidth=4;fillColor=none;gradientColor=#007FFF;fontSize=9;fontColor=#FFFFFF;align=center;" parent="im_V31sKaovh9-GjimSp-19" vertex="1">
          <mxGeometry x="62.99979710203738" y="6.092307692307692" width="239.12930687157427" height="153.90769230769232" as="geometry" />
        </mxCell>
        <mxCell id="im_V31sKaovh9-GjimSp-44" value="" style="group" parent="RzOaA_u3JlGsLnGhBPAF-8" vertex="1" connectable="0">
          <mxGeometry x="220.91086956521735" y="840" width="390" height="170" as="geometry" />
        </mxCell>
        <mxCell id="im_V31sKaovh9-GjimSp-45" value="" style="rounded=1;whiteSpace=wrap;html=1;strokeColor=none;strokeWidth=1;fillColor=#10739E;fontSize=13;fontColor=#FFFFFF;align=center;gradientColor=none;gradientDirection=east;verticalAlign=top;shadow=1;" parent="im_V31sKaovh9-GjimSp-44" vertex="1">
          <mxGeometry width="390" height="170" as="geometry" />
        </mxCell>
        <mxCell id="im_V31sKaovh9-GjimSp-46" value="5" style="text;html=1;strokeColor=none;fillColor=none;align=center;verticalAlign=middle;whiteSpace=wrap;fontSize=30;fontColor=#FFFFFF;" parent="im_V31sKaovh9-GjimSp-44" vertex="1">
          <mxGeometry x="17.272727272727273" y="66" width="69.0909090909091" height="40" as="geometry" />
        </mxCell>
        <mxCell id="im_V31sKaovh9-GjimSp-47" value="&lt;h1&gt;Integração de Pedidos Via Cartão - Liven&lt;/h1&gt;&lt;p style=&quot;font-size: 12px&quot;&gt;&lt;span&gt;Pedidos Pagos via cartão precisam ser inspecionados em busca de pedidos parados em algum estágio e integrados manualmente se necessário.&amp;nbsp;&amp;nbsp;&lt;/span&gt;&lt;/p&gt;&lt;p style=&quot;font-size: 12px&quot;&gt;&lt;b&gt;Como Realizar:&amp;nbsp;&lt;/b&gt;&lt;span&gt;&amp;nbsp;&lt;/span&gt;&lt;br&gt;&lt;/p&gt;" style="text;html=1;spacing=5;spacingTop=-20;whiteSpace=wrap;overflow=hidden;strokeColor=none;strokeWidth=4;fillColor=none;gradientColor=#007FFF;fontSize=9;fontColor=#FFFFFF;align=center;" parent="im_V31sKaovh9-GjimSp-44" vertex="1">
          <mxGeometry x="88.63636363636364" y="12.857142857142858" width="276.3636363636364" height="154.00000000000003" as="geometry" />
        </mxCell>
      </root>
    </mxGraphModel>
  </diagram>
</mxfile>
